<mxfile host="Electron" modified="2023-10-29T12:08:44.023Z" agent="Mozilla/5.0 (Windows NT 10.0; Win64; x64) AppleWebKit/537.36 (KHTML, like Gecko) draw.io/22.0.3 Chrome/114.0.5735.289 Electron/25.8.4 Safari/537.36" etag="UCVNlx-pRY6mfEzZZKC6" version="22.0.3" type="device">
  <diagram id="C5RBs43oDa-KdzZeNtuy" name="Page-1">
    <mxGraphModel dx="1392" dy="2011" grid="1" gridSize="10" guides="1" tooltips="1" connect="1" arrows="1" fold="1" page="1" pageScale="1" pageWidth="827" pageHeight="1169" math="0" shadow="0">
      <root>
        <mxCell id="WIyWlLk6GJQsqaUBKTNV-0" />
        <mxCell id="WIyWlLk6GJQsqaUBKTNV-1" parent="WIyWlLk6GJQsqaUBKTNV-0" />
        <mxCell id="4zk80Xwb3kzSBfWZRw0h-34" value="" style="edgeStyle=orthogonalEdgeStyle;rounded=0;orthogonalLoop=1;jettySize=auto;html=1;startArrow=classic;startFill=1;" edge="1" parent="WIyWlLk6GJQsqaUBKTNV-1" source="WIyWlLk6GJQsqaUBKTNV-3" target="d_fNOJ9K5qcRmXvY3heV-0">
          <mxGeometry relative="1" as="geometry" />
        </mxCell>
        <mxCell id="4zk80Xwb3kzSBfWZRw0h-37" value="" style="edgeStyle=orthogonalEdgeStyle;rounded=0;orthogonalLoop=1;jettySize=auto;html=1;startArrow=classic;startFill=1;" edge="1" parent="WIyWlLk6GJQsqaUBKTNV-1" source="WIyWlLk6GJQsqaUBKTNV-3" target="4zk80Xwb3kzSBfWZRw0h-36">
          <mxGeometry relative="1" as="geometry" />
        </mxCell>
        <mxCell id="WIyWlLk6GJQsqaUBKTNV-3" value="Temporal Orchestration server" style="rounded=1;whiteSpace=wrap;html=1;fontSize=12;glass=0;strokeWidth=1;shadow=0;arcSize=9;fillColor=#dae8fc;strokeColor=#6c8ebf;" parent="WIyWlLk6GJQsqaUBKTNV-1" vertex="1">
          <mxGeometry x="260" y="10" width="200" height="110" as="geometry" />
        </mxCell>
        <mxCell id="d_fNOJ9K5qcRmXvY3heV-0" value="Persistence" style="shape=cylinder3;whiteSpace=wrap;html=1;boundedLbl=1;backgroundOutline=1;size=15;fillColor=#e1d5e7;strokeColor=#9673a6;" parent="WIyWlLk6GJQsqaUBKTNV-1" vertex="1">
          <mxGeometry x="550" y="25" width="70" height="80" as="geometry" />
        </mxCell>
        <mxCell id="4zk80Xwb3kzSBfWZRw0h-0" value="" style="rounded=1;whiteSpace=wrap;html=1;fillColor=#fff2cc;strokeColor=#d6b656;" vertex="1" parent="WIyWlLk6GJQsqaUBKTNV-1">
          <mxGeometry x="60" y="432" width="690" height="200" as="geometry" />
        </mxCell>
        <mxCell id="4zk80Xwb3kzSBfWZRw0h-1" value="WorkFlow" style="text;html=1;align=center;verticalAlign=middle;resizable=0;points=[];autosize=1;strokeColor=none;fillColor=none;" vertex="1" parent="WIyWlLk6GJQsqaUBKTNV-1">
          <mxGeometry x="90" y="410" width="80" height="30" as="geometry" />
        </mxCell>
        <mxCell id="4zk80Xwb3kzSBfWZRw0h-6" value="&amp;nbsp; &amp;nbsp; &amp;nbsp; Activity 1" style="shape=step;perimeter=stepPerimeter;whiteSpace=wrap;html=1;fixedSize=1;fillColor=#d5e8d4;strokeColor=#82b366;" vertex="1" parent="WIyWlLk6GJQsqaUBKTNV-1">
          <mxGeometry x="100" y="442" width="190" height="180" as="geometry" />
        </mxCell>
        <mxCell id="4zk80Xwb3kzSBfWZRw0h-14" value="Input" style="shape=process;whiteSpace=wrap;html=1;backgroundOutline=1;fillColor=#e1d5e7;strokeColor=#9673a6;" vertex="1" parent="WIyWlLk6GJQsqaUBKTNV-1">
          <mxGeometry x="120" y="507" width="50" height="50" as="geometry" />
        </mxCell>
        <mxCell id="4zk80Xwb3kzSBfWZRw0h-20" value="Output" style="shape=process;whiteSpace=wrap;html=1;backgroundOutline=1;fillColor=#e1d5e7;strokeColor=#9673a6;" vertex="1" parent="WIyWlLk6GJQsqaUBKTNV-1">
          <mxGeometry x="237" y="507" width="50" height="50" as="geometry" />
        </mxCell>
        <mxCell id="4zk80Xwb3kzSBfWZRw0h-21" value="Activity 1" style="shape=step;perimeter=stepPerimeter;whiteSpace=wrap;html=1;fixedSize=1;fillColor=#d5e8d4;strokeColor=#82b366;" vertex="1" parent="WIyWlLk6GJQsqaUBKTNV-1">
          <mxGeometry x="300" y="442" width="190" height="180" as="geometry" />
        </mxCell>
        <mxCell id="4zk80Xwb3kzSBfWZRw0h-22" value="Input" style="shape=process;whiteSpace=wrap;html=1;backgroundOutline=1;fillColor=#e1d5e7;strokeColor=#9673a6;" vertex="1" parent="WIyWlLk6GJQsqaUBKTNV-1">
          <mxGeometry x="320" y="507" width="50" height="50" as="geometry" />
        </mxCell>
        <mxCell id="4zk80Xwb3kzSBfWZRw0h-23" value="Output" style="shape=process;whiteSpace=wrap;html=1;backgroundOutline=1;fillColor=#e1d5e7;strokeColor=#9673a6;" vertex="1" parent="WIyWlLk6GJQsqaUBKTNV-1">
          <mxGeometry x="437" y="507" width="50" height="50" as="geometry" />
        </mxCell>
        <mxCell id="4zk80Xwb3kzSBfWZRw0h-24" value="Activity 1" style="shape=step;perimeter=stepPerimeter;whiteSpace=wrap;html=1;fixedSize=1;fillColor=#d5e8d4;strokeColor=#82b366;" vertex="1" parent="WIyWlLk6GJQsqaUBKTNV-1">
          <mxGeometry x="500" y="442" width="200" height="180" as="geometry" />
        </mxCell>
        <mxCell id="4zk80Xwb3kzSBfWZRw0h-25" value="Input" style="shape=process;whiteSpace=wrap;html=1;backgroundOutline=1;fillColor=#e1d5e7;strokeColor=#9673a6;" vertex="1" parent="WIyWlLk6GJQsqaUBKTNV-1">
          <mxGeometry x="520" y="507" width="50" height="50" as="geometry" />
        </mxCell>
        <mxCell id="4zk80Xwb3kzSBfWZRw0h-26" value="Output" style="shape=process;whiteSpace=wrap;html=1;backgroundOutline=1;fillColor=#e1d5e7;strokeColor=#9673a6;" vertex="1" parent="WIyWlLk6GJQsqaUBKTNV-1">
          <mxGeometry x="637" y="507" width="50" height="50" as="geometry" />
        </mxCell>
        <mxCell id="4zk80Xwb3kzSBfWZRw0h-27" value="Input" style="shape=process;whiteSpace=wrap;html=1;backgroundOutline=1;fillColor=#e1d5e7;strokeColor=#9673a6;" vertex="1" parent="WIyWlLk6GJQsqaUBKTNV-1">
          <mxGeometry x="40" y="507" width="50" height="50" as="geometry" />
        </mxCell>
        <mxCell id="4zk80Xwb3kzSBfWZRw0h-28" value="Output" style="shape=process;whiteSpace=wrap;html=1;backgroundOutline=1;fillColor=#e1d5e7;strokeColor=#9673a6;" vertex="1" parent="WIyWlLk6GJQsqaUBKTNV-1">
          <mxGeometry x="728" y="507" width="50" height="50" as="geometry" />
        </mxCell>
        <mxCell id="4zk80Xwb3kzSBfWZRw0h-29" value="&lt;h1&gt;WorkFlow and Activities&lt;/h1&gt;&lt;div&gt;The Interface of the WorkFlow and the Activities are the &#39;blueprint&#39; on which the Temporal Server will assign executions to polling Workers. The blueprint is defined in java code.&lt;/div&gt;&lt;div&gt;&lt;b&gt;Workflow &lt;/b&gt;- Contains the logic to chain the set of activities depending on the input in a determistic way&lt;/div&gt;&lt;div&gt;&lt;b&gt;Activities &lt;/b&gt;-&amp;nbsp; Are retryable idempotant pieces of business logic&lt;/div&gt;" style="text;html=1;strokeColor=none;fillColor=none;spacing=5;spacingTop=-20;whiteSpace=wrap;overflow=hidden;rounded=0;" vertex="1" parent="WIyWlLk6GJQsqaUBKTNV-1">
          <mxGeometry x="40" y="270" width="710" height="120" as="geometry" />
        </mxCell>
        <mxCell id="4zk80Xwb3kzSBfWZRw0h-30" value="&lt;h1&gt;Worker&lt;/h1&gt;&lt;div&gt;A worker can be defined to poll on workflows and/or activities. The worker will run on the application instance.&amp;nbsp;&lt;br&gt;A (micro) service can be set up to only poll specific parts of a workflow or a whole teamflow, depending on the needs.&lt;br&gt;The worker is the scalable part.&amp;nbsp;&lt;/div&gt;" style="text;html=1;strokeColor=none;fillColor=none;spacing=5;spacingTop=-20;whiteSpace=wrap;overflow=hidden;rounded=0;" vertex="1" parent="WIyWlLk6GJQsqaUBKTNV-1">
          <mxGeometry x="40" y="640" width="710" height="120" as="geometry" />
        </mxCell>
        <mxCell id="4zk80Xwb3kzSBfWZRw0h-31" value="&lt;h1&gt;&lt;span style=&quot;background-color: initial;&quot;&gt;Temporal Orchestration Server&lt;/span&gt;&lt;/h1&gt;&lt;div&gt;&lt;span style=&quot;background-color: initial;&quot;&gt;This is the hearth of the setup. The server will keep track of all running WorkFlows and Activities. It will persist the input and output of both WorkFlows and Activities for retryablity. With the optional tools there will also be ui-managing, observibility and searchability enabled&lt;/span&gt;&lt;/div&gt;" style="text;html=1;strokeColor=none;fillColor=none;spacing=5;spacingTop=-20;whiteSpace=wrap;overflow=hidden;rounded=0;" vertex="1" parent="WIyWlLk6GJQsqaUBKTNV-1">
          <mxGeometry x="40" y="-100" width="710" height="120" as="geometry" />
        </mxCell>
        <mxCell id="4zk80Xwb3kzSBfWZRw0h-33" value="" style="edgeStyle=orthogonalEdgeStyle;rounded=0;orthogonalLoop=1;jettySize=auto;html=1;startArrow=classic;startFill=1;" edge="1" parent="WIyWlLk6GJQsqaUBKTNV-1" source="4zk80Xwb3kzSBfWZRw0h-32" target="WIyWlLk6GJQsqaUBKTNV-3">
          <mxGeometry relative="1" as="geometry" />
        </mxCell>
        <mxCell id="4zk80Xwb3kzSBfWZRw0h-32" value="Temporal-GUI" style="ellipse;whiteSpace=wrap;html=1;fillColor=#b0e3e6;strokeColor=#0e8088;" vertex="1" parent="WIyWlLk6GJQsqaUBKTNV-1">
          <mxGeometry x="70" y="25" width="120" height="80" as="geometry" />
        </mxCell>
        <mxCell id="4zk80Xwb3kzSBfWZRw0h-36" value="Server Management tool" style="ellipse;whiteSpace=wrap;html=1;fillColor=#d0cee2;strokeColor=#56517e;" vertex="1" parent="WIyWlLk6GJQsqaUBKTNV-1">
          <mxGeometry x="320" y="160" width="80" height="80" as="geometry" />
        </mxCell>
        <mxCell id="4zk80Xwb3kzSBfWZRw0h-38" value="WorkFlows" style="rounded=1;whiteSpace=wrap;html=1;fillColor=#fff2cc;strokeColor=#d6b656;" vertex="1" parent="WIyWlLk6GJQsqaUBKTNV-1">
          <mxGeometry x="280" y="80" width="70" height="30" as="geometry" />
        </mxCell>
        <mxCell id="4zk80Xwb3kzSBfWZRw0h-39" value="Activities" style="rounded=1;whiteSpace=wrap;html=1;fillColor=#d5e8d4;strokeColor=#82b366;" vertex="1" parent="WIyWlLk6GJQsqaUBKTNV-1">
          <mxGeometry x="367" y="80" width="70" height="30" as="geometry" />
        </mxCell>
        <mxCell id="4zk80Xwb3kzSBfWZRw0h-40" value="" style="edgeStyle=orthogonalEdgeStyle;rounded=0;orthogonalLoop=1;jettySize=auto;html=1;startArrow=classic;startFill=1;" edge="1" parent="WIyWlLk6GJQsqaUBKTNV-1" source="4zk80Xwb3kzSBfWZRw0h-41" target="4zk80Xwb3kzSBfWZRw0h-42">
          <mxGeometry relative="1" as="geometry" />
        </mxCell>
        <mxCell id="4zk80Xwb3kzSBfWZRw0h-41" value="Temporal Orchestration server" style="rounded=1;whiteSpace=wrap;html=1;fontSize=12;glass=0;strokeWidth=1;shadow=0;arcSize=9;fillColor=#dae8fc;strokeColor=#6c8ebf;" vertex="1" parent="WIyWlLk6GJQsqaUBKTNV-1">
          <mxGeometry x="215" y="760" width="200" height="110" as="geometry" />
        </mxCell>
        <mxCell id="4zk80Xwb3kzSBfWZRw0h-42" value="Persistence" style="shape=cylinder3;whiteSpace=wrap;html=1;boundedLbl=1;backgroundOutline=1;size=15;fillColor=#e1d5e7;strokeColor=#9673a6;" vertex="1" parent="WIyWlLk6GJQsqaUBKTNV-1">
          <mxGeometry x="505" y="775" width="70" height="80" as="geometry" />
        </mxCell>
        <mxCell id="4zk80Xwb3kzSBfWZRw0h-43" value="WorkFlows" style="rounded=1;whiteSpace=wrap;html=1;fillColor=#fff2cc;strokeColor=#d6b656;" vertex="1" parent="WIyWlLk6GJQsqaUBKTNV-1">
          <mxGeometry x="235" y="830" width="70" height="30" as="geometry" />
        </mxCell>
        <mxCell id="4zk80Xwb3kzSBfWZRw0h-44" value="Activities" style="rounded=1;whiteSpace=wrap;html=1;fillColor=#d5e8d4;strokeColor=#82b366;" vertex="1" parent="WIyWlLk6GJQsqaUBKTNV-1">
          <mxGeometry x="322" y="830" width="70" height="30" as="geometry" />
        </mxCell>
        <mxCell id="4zk80Xwb3kzSBfWZRw0h-53" value="" style="rounded=1;whiteSpace=wrap;html=1;arcSize=5;" vertex="1" parent="WIyWlLk6GJQsqaUBKTNV-1">
          <mxGeometry x="40" y="960" width="520" height="350" as="geometry" />
        </mxCell>
        <mxCell id="4zk80Xwb3kzSBfWZRw0h-54" value="Application" style="text;html=1;strokeColor=none;fillColor=none;align=center;verticalAlign=middle;whiteSpace=wrap;rounded=0;" vertex="1" parent="WIyWlLk6GJQsqaUBKTNV-1">
          <mxGeometry x="50" y="960" width="60" height="30" as="geometry" />
        </mxCell>
        <mxCell id="4zk80Xwb3kzSBfWZRw0h-57" value="" style="rounded=0;whiteSpace=wrap;html=1;fillColor=#dae8fc;strokeColor=#6c8ebf;" vertex="1" parent="WIyWlLk6GJQsqaUBKTNV-1">
          <mxGeometry x="50" y="990" width="500" height="70" as="geometry" />
        </mxCell>
        <mxCell id="4zk80Xwb3kzSBfWZRw0h-58" value="&lt;b&gt;Worker&lt;/b&gt;" style="text;html=1;strokeColor=none;fillColor=none;align=center;verticalAlign=middle;whiteSpace=wrap;rounded=0;" vertex="1" parent="WIyWlLk6GJQsqaUBKTNV-1">
          <mxGeometry x="50" y="990" width="60" height="30" as="geometry" />
        </mxCell>
        <mxCell id="4zk80Xwb3kzSBfWZRw0h-59" value="Workflow A" style="shape=step;perimeter=stepPerimeter;whiteSpace=wrap;html=1;fixedSize=1;fillColor=#fff2cc;strokeColor=#d6b656;" vertex="1" parent="WIyWlLk6GJQsqaUBKTNV-1">
          <mxGeometry x="60" y="1020" width="110" height="30" as="geometry" />
        </mxCell>
        <mxCell id="4zk80Xwb3kzSBfWZRw0h-60" value="Activity 2" style="shape=step;perimeter=stepPerimeter;whiteSpace=wrap;html=1;fixedSize=1;fillColor=#d5e8d4;strokeColor=#82b366;" vertex="1" parent="WIyWlLk6GJQsqaUBKTNV-1">
          <mxGeometry x="367" y="1020" width="110" height="30" as="geometry" />
        </mxCell>
        <mxCell id="4zk80Xwb3kzSBfWZRw0h-61" value="Workflow A" style="shape=step;perimeter=stepPerimeter;whiteSpace=wrap;html=1;fixedSize=1;fillColor=#fff2cc;strokeColor=#d6b656;" vertex="1" parent="WIyWlLk6GJQsqaUBKTNV-1">
          <mxGeometry x="260" y="1020" width="110" height="30" as="geometry" />
        </mxCell>
        <mxCell id="4zk80Xwb3kzSBfWZRw0h-62" value="Activity 1" style="shape=step;perimeter=stepPerimeter;whiteSpace=wrap;html=1;fixedSize=1;fillColor=#d5e8d4;strokeColor=#82b366;" vertex="1" parent="WIyWlLk6GJQsqaUBKTNV-1">
          <mxGeometry x="160" y="1020" width="110" height="30" as="geometry" />
        </mxCell>
        <mxCell id="4zk80Xwb3kzSBfWZRw0h-63" value="" style="shape=flexArrow;endArrow=classic;startArrow=classic;html=1;rounded=0;exitX=0.5;exitY=0;exitDx=0;exitDy=0;entryX=0.5;entryY=1;entryDx=0;entryDy=0;" edge="1" parent="WIyWlLk6GJQsqaUBKTNV-1" source="4zk80Xwb3kzSBfWZRw0h-59" target="4zk80Xwb3kzSBfWZRw0h-43">
          <mxGeometry width="100" height="100" relative="1" as="geometry">
            <mxPoint x="280" y="1060" as="sourcePoint" />
            <mxPoint x="380" y="960" as="targetPoint" />
          </mxGeometry>
        </mxCell>
        <mxCell id="4zk80Xwb3kzSBfWZRw0h-64" value="Polling&amp;nbsp;" style="edgeLabel;html=1;align=center;verticalAlign=middle;resizable=0;points=[];" vertex="1" connectable="0" parent="4zk80Xwb3kzSBfWZRw0h-63">
          <mxGeometry x="0.2314" y="-2" relative="1" as="geometry">
            <mxPoint as="offset" />
          </mxGeometry>
        </mxCell>
        <mxCell id="4zk80Xwb3kzSBfWZRw0h-65" value="" style="shape=flexArrow;endArrow=classic;startArrow=classic;html=1;rounded=0;exitX=0.5;exitY=0;exitDx=0;exitDy=0;entryX=0.25;entryY=1;entryDx=0;entryDy=0;" edge="1" parent="WIyWlLk6GJQsqaUBKTNV-1" source="4zk80Xwb3kzSBfWZRw0h-62" target="4zk80Xwb3kzSBfWZRw0h-44">
          <mxGeometry width="100" height="100" relative="1" as="geometry">
            <mxPoint x="125" y="1030" as="sourcePoint" />
            <mxPoint x="280" y="870" as="targetPoint" />
          </mxGeometry>
        </mxCell>
        <mxCell id="4zk80Xwb3kzSBfWZRw0h-66" value="Polling&amp;nbsp;" style="edgeLabel;html=1;align=center;verticalAlign=middle;resizable=0;points=[];" vertex="1" connectable="0" parent="4zk80Xwb3kzSBfWZRw0h-65">
          <mxGeometry x="0.2314" y="-2" relative="1" as="geometry">
            <mxPoint as="offset" />
          </mxGeometry>
        </mxCell>
        <mxCell id="4zk80Xwb3kzSBfWZRw0h-67" value="" style="shape=flexArrow;endArrow=classic;startArrow=classic;html=1;rounded=0;exitX=0.5;exitY=0;exitDx=0;exitDy=0;entryX=0.5;entryY=1;entryDx=0;entryDy=0;" edge="1" parent="WIyWlLk6GJQsqaUBKTNV-1" source="4zk80Xwb3kzSBfWZRw0h-61" target="4zk80Xwb3kzSBfWZRw0h-43">
          <mxGeometry width="100" height="100" relative="1" as="geometry">
            <mxPoint x="125" y="1030" as="sourcePoint" />
            <mxPoint x="280" y="870" as="targetPoint" />
          </mxGeometry>
        </mxCell>
        <mxCell id="4zk80Xwb3kzSBfWZRw0h-68" value="Polling&amp;nbsp;" style="edgeLabel;html=1;align=center;verticalAlign=middle;resizable=0;points=[];" vertex="1" connectable="0" parent="4zk80Xwb3kzSBfWZRw0h-67">
          <mxGeometry x="0.2314" y="-2" relative="1" as="geometry">
            <mxPoint as="offset" />
          </mxGeometry>
        </mxCell>
        <mxCell id="4zk80Xwb3kzSBfWZRw0h-69" value="" style="shape=flexArrow;endArrow=classic;startArrow=classic;html=1;rounded=0;exitX=0.5;exitY=0;exitDx=0;exitDy=0;entryX=0.75;entryY=1;entryDx=0;entryDy=0;" edge="1" parent="WIyWlLk6GJQsqaUBKTNV-1" source="4zk80Xwb3kzSBfWZRw0h-60" target="4zk80Xwb3kzSBfWZRw0h-44">
          <mxGeometry width="100" height="100" relative="1" as="geometry">
            <mxPoint x="235" y="1020" as="sourcePoint" />
            <mxPoint x="360" y="860" as="targetPoint" />
          </mxGeometry>
        </mxCell>
        <mxCell id="4zk80Xwb3kzSBfWZRw0h-70" value="Polling&amp;nbsp;" style="edgeLabel;html=1;align=center;verticalAlign=middle;resizable=0;points=[];" vertex="1" connectable="0" parent="4zk80Xwb3kzSBfWZRw0h-69">
          <mxGeometry x="0.2314" y="-2" relative="1" as="geometry">
            <mxPoint as="offset" />
          </mxGeometry>
        </mxCell>
        <mxCell id="4zk80Xwb3kzSBfWZRw0h-80" value="" style="rounded=0;whiteSpace=wrap;html=1;fillColor=#f5f5f5;fontColor=#333333;strokeColor=#666666;" vertex="1" parent="WIyWlLk6GJQsqaUBKTNV-1">
          <mxGeometry x="50" y="1060" width="500" height="240" as="geometry" />
        </mxCell>
        <mxCell id="4zk80Xwb3kzSBfWZRw0h-76" style="edgeStyle=orthogonalEdgeStyle;rounded=0;orthogonalLoop=1;jettySize=auto;html=1;exitX=0.5;exitY=1;exitDx=0;exitDy=0;entryX=0.25;entryY=0;entryDx=0;entryDy=0;" edge="1" parent="WIyWlLk6GJQsqaUBKTNV-1" source="4zk80Xwb3kzSBfWZRw0h-71" target="4zk80Xwb3kzSBfWZRw0h-72">
          <mxGeometry relative="1" as="geometry" />
        </mxCell>
        <mxCell id="4zk80Xwb3kzSBfWZRw0h-77" style="edgeStyle=orthogonalEdgeStyle;rounded=0;orthogonalLoop=1;jettySize=auto;html=1;exitX=1;exitY=0.25;exitDx=0;exitDy=0;entryX=0;entryY=0.25;entryDx=0;entryDy=0;" edge="1" parent="WIyWlLk6GJQsqaUBKTNV-1" source="4zk80Xwb3kzSBfWZRw0h-71" target="4zk80Xwb3kzSBfWZRw0h-73">
          <mxGeometry relative="1" as="geometry" />
        </mxCell>
        <mxCell id="4zk80Xwb3kzSBfWZRw0h-71" value="Application business logic" style="shape=process;whiteSpace=wrap;html=1;backgroundOutline=1;" vertex="1" parent="WIyWlLk6GJQsqaUBKTNV-1">
          <mxGeometry x="55" y="1150" width="120" height="60" as="geometry" />
        </mxCell>
        <mxCell id="4zk80Xwb3kzSBfWZRw0h-79" style="edgeStyle=orthogonalEdgeStyle;rounded=0;orthogonalLoop=1;jettySize=auto;html=1;exitX=1;exitY=0.25;exitDx=0;exitDy=0;entryX=0.75;entryY=1;entryDx=0;entryDy=0;" edge="1" parent="WIyWlLk6GJQsqaUBKTNV-1" source="4zk80Xwb3kzSBfWZRw0h-72" target="4zk80Xwb3kzSBfWZRw0h-62">
          <mxGeometry relative="1" as="geometry">
            <Array as="points">
              <mxPoint x="210" y="1260" />
              <mxPoint x="350" y="1260" />
              <mxPoint x="350" y="1080" />
              <mxPoint x="243" y="1080" />
            </Array>
          </mxGeometry>
        </mxCell>
        <mxCell id="4zk80Xwb3kzSBfWZRw0h-72" value="Application business logic" style="shape=process;whiteSpace=wrap;html=1;backgroundOutline=1;" vertex="1" parent="WIyWlLk6GJQsqaUBKTNV-1">
          <mxGeometry x="90" y="1230" width="120" height="60" as="geometry" />
        </mxCell>
        <mxCell id="4zk80Xwb3kzSBfWZRw0h-78" style="edgeStyle=orthogonalEdgeStyle;rounded=0;orthogonalLoop=1;jettySize=auto;html=1;exitX=0;exitY=0.5;exitDx=0;exitDy=0;entryX=0.75;entryY=0;entryDx=0;entryDy=0;" edge="1" parent="WIyWlLk6GJQsqaUBKTNV-1" source="4zk80Xwb3kzSBfWZRw0h-73" target="4zk80Xwb3kzSBfWZRw0h-72">
          <mxGeometry relative="1" as="geometry" />
        </mxCell>
        <mxCell id="4zk80Xwb3kzSBfWZRw0h-73" value="Application business logic" style="shape=process;whiteSpace=wrap;html=1;backgroundOutline=1;" vertex="1" parent="WIyWlLk6GJQsqaUBKTNV-1">
          <mxGeometry x="215" y="1150" width="120" height="60" as="geometry" />
        </mxCell>
        <mxCell id="4zk80Xwb3kzSBfWZRw0h-83" style="edgeStyle=orthogonalEdgeStyle;rounded=0;orthogonalLoop=1;jettySize=auto;html=1;exitX=0.75;exitY=0;exitDx=0;exitDy=0;entryX=0.75;entryY=1;entryDx=0;entryDy=0;" edge="1" parent="WIyWlLk6GJQsqaUBKTNV-1" source="4zk80Xwb3kzSBfWZRw0h-74" target="4zk80Xwb3kzSBfWZRw0h-60">
          <mxGeometry relative="1" as="geometry" />
        </mxCell>
        <mxCell id="4zk80Xwb3kzSBfWZRw0h-74" value="Application business logic" style="shape=process;whiteSpace=wrap;html=1;backgroundOutline=1;" vertex="1" parent="WIyWlLk6GJQsqaUBKTNV-1">
          <mxGeometry x="385" y="1150" width="120" height="60" as="geometry" />
        </mxCell>
        <mxCell id="4zk80Xwb3kzSBfWZRw0h-75" value="" style="endArrow=classic;html=1;rounded=0;exitX=0.25;exitY=1;exitDx=0;exitDy=0;entryX=0.5;entryY=0;entryDx=0;entryDy=0;" edge="1" parent="WIyWlLk6GJQsqaUBKTNV-1" source="4zk80Xwb3kzSBfWZRw0h-62" target="4zk80Xwb3kzSBfWZRw0h-71">
          <mxGeometry width="50" height="50" relative="1" as="geometry">
            <mxPoint x="300" y="1030" as="sourcePoint" />
            <mxPoint x="350" y="980" as="targetPoint" />
            <Array as="points">
              <mxPoint x="188" y="1110" />
              <mxPoint x="115" y="1110" />
            </Array>
          </mxGeometry>
        </mxCell>
        <mxCell id="4zk80Xwb3kzSBfWZRw0h-81" value="&lt;b&gt;Application logic&lt;/b&gt;" style="text;html=1;strokeColor=none;fillColor=none;align=center;verticalAlign=middle;whiteSpace=wrap;rounded=0;" vertex="1" parent="WIyWlLk6GJQsqaUBKTNV-1">
          <mxGeometry x="55" y="1067" width="110" height="30" as="geometry" />
        </mxCell>
        <mxCell id="4zk80Xwb3kzSBfWZRw0h-82" style="edgeStyle=orthogonalEdgeStyle;rounded=0;orthogonalLoop=1;jettySize=auto;html=1;exitX=0.25;exitY=1;exitDx=0;exitDy=0;entryX=0.25;entryY=0;entryDx=0;entryDy=0;" edge="1" parent="WIyWlLk6GJQsqaUBKTNV-1" source="4zk80Xwb3kzSBfWZRw0h-60" target="4zk80Xwb3kzSBfWZRw0h-74">
          <mxGeometry relative="1" as="geometry" />
        </mxCell>
      </root>
    </mxGraphModel>
  </diagram>
</mxfile>
